<svg width="20" height="20" viewBox="0 0 20 20" fill="none" xmlns="http://www.w3.org/2000/svg">
<path d="M4.72 11.2782C4.48 11.3058 4.24 11.3354 4 11.3668M4.72 11.2782C8.22626 10.8721 11.7737 10.8721 15.28 11.2782M4.72 11.2782L4.34 15.1283M15.28 11.2782C15.52 11.3058 15.76 11.3354 16 11.3668M15.28 11.2782L15.66 15.1283L15.889 17.4572C15.9032 17.6009 15.8848 17.7458 15.8349 17.8825C15.7851 18.0193 15.7049 18.1449 15.5995 18.2515C15.4942 18.358 15.3659 18.4432 15.2229 18.5014C15.0799 18.5597 14.9253 18.5898 14.769 18.5898H5.231C4.569 18.5898 4.051 18.0655 4.111 17.4572L4.34 15.1283M4.34 15.1283H3.25C2.65326 15.1283 2.08097 14.9095 1.65901 14.52C1.23705 14.1305 1 13.6022 1 13.0514V7.24154C1 6.24369 1.768 5.38154 2.837 5.23384C3.47295 5.14603 4.11074 5.07002 4.75 5.00584M15.658 15.1283H16.749C17.0446 15.1284 17.3372 15.0748 17.6103 14.9705C17.8834 14.8662 18.1316 14.7132 18.3406 14.5203C18.5497 14.3274 18.7155 14.0984 18.8286 13.8464C18.9418 13.5944 19 13.3242 19 13.0514V7.24154C19 6.24369 18.232 5.38154 17.163 5.23384C16.5271 5.14604 15.8893 5.07002 15.25 5.00584M15.25 5.00584C11.7603 4.65535 8.2397 4.65535 4.75 5.00584M15.25 5.00584V1.62831C15.25 1.05507 14.746 0.589844 14.125 0.589844H5.875C5.254 0.589844 4.75 1.05507 4.75 1.62831V5.00584M16 8.20523H16.008V8.21261H16V8.20523ZM13 8.20523H13.008V8.21261H13V8.20523Z" stroke="#4C4D4F" stroke-linecap="round" stroke-linejoin="round"/>
</svg>
